<svg xmlns="http://www.w3.org/2000/svg" width="256" height="256" viewBox="0 0 64 64"><defs><linearGradient id="sigil_bg_grad" x1="0" y1="0" x2="1" y2="1"><stop offset="0%" stop-color="#1f0a3a"/><stop offset="100%" stop-color="#ec4899"/></linearGradient><filter id="sigil_soft_shadow" x="-20%" y="-20%" width="140%" height="140%"><feDropShadow dx="0" dy="1.2" stdDeviation="1.1" flood-color="#000" flood-opacity="0.28"/></filter><radialGradient id="sigil_vignette" cx="50%" cy="45%" r="70%"><stop offset="0%" stop-color="#000" stop-opacity="0"/><stop offset="75%" stop-color="#000" stop-opacity="0"/><stop offset="100%" stop-color="#000" stop-opacity="0.22"/></radialGradient><clipPath id="sigil_clip"><rect x="0" y="0" width="64" height="64" rx="12"/></clipPath><filter id="sigil_frame_shadow" x="-20%" y="-20%" width="140%" height="140%"><feDropShadow dx="0" dy="1" stdDeviation="1.2" flood-color="#000" flood-opacity="0.22"/></filter><filter id="sigil_laser_glow" x="-40%" y="-40%" width="180%" height="180%"><feGaussianBlur stdDeviation="0.7"/></filter><filter id="sigil_tint_r"><feColorMatrix type="matrix" values="1 0 0 0 0  0 0 0 0 0  0 0 0 0 0  0 0 0 1 0"/></filter><filter id="sigil_tint_c"><feColorMatrix type="matrix" values="0 0 0 0 0  0 1 0 0 0  0 0 1 0 0  0 0 0 1 0"/></filter></defs><desc>sigil example 4</desc><metadata><sigil:data xmlns:sigil="https://bobine.tech#sigil"><sigil:seed>66bb695742d1b33bed11afdc4ac6d88c</sigil:seed><sigil:burns>0</sigil:burns><sigil:bless_count>0</sigil:bless_count><sigil:traits bg="2" arche="1" body="1" brow="1" eyes="3" mouth="1" hat="5" fx="3" pal="3" anomaly="0" anomaly_kind="0"/></sigil:data></metadata><g id="sigil-scene" clip-path="url(#sigil_clip)"><g id="sigil-bg"><rect x="0" y="0" width="64" height="64" rx="12" fill="url(#sigil_bg_grad)"/><path d="M-10 66 L66 -10" stroke="#fff" stroke-width="10" opacity="0.05"/><rect x="0" y="0" width="64" height="64" rx="12" fill="url(#sigil_vignette)"/></g><g id="sigil-avatar" filter="url(#sigil_soft_shadow)"><g id="sigil-body"><path d="M12 64 V44 Q32 34 52 44 V64 Z" fill="#0b1020"/><path d="M32 44 L26 64" stroke="#000" opacity="0.12" stroke-width="3"/><path d="M32 44 L38 64" stroke="#000" opacity="0.12" stroke-width="3"/><path d="M28 46 Q32 50 36 46" fill="#fff" opacity="0.10"/></g><g id="sigil-head"><path d="M32 16 C44 16 52 26 52 36 C52 50 42 56 32 56 C22 56 12 50 12 36 C12 26 20 16 32 16 Z" fill="#c98a5e"/><path d="M18 42 Q32 52 46 42" fill="#000" opacity="0.08"/><path d="M20 26 Q32 18 44 26" fill="none" stroke="#fff" opacity="0.08" stroke-width="4" stroke-linecap="round"/><path d="M20 50 Q32 56 44 50" fill="none" stroke="#000" opacity="0.07" stroke-width="6" stroke-linecap="round"/><circle cx="22" cy="42" r="5" fill="#fff" opacity="0.030"/><circle cx="42" cy="42" r="5" fill="#fff" opacity="0.022"/></g><g id="sigil-brows"><path d="M20 27 Q25 24 30 27" fill="none" stroke="#111" stroke-width="2" stroke-linecap="round" opacity="0.35"/><path d="M34 27 Q39 24 44 27" fill="none" stroke="#111" stroke-width="2" stroke-linecap="round" opacity="0.35"/></g><g id="sigil-eyes"><circle cx="25" cy="32" r="8" fill="none" stroke="#111" stroke-width="2"/><circle cx="39" cy="32" r="8" fill="none" stroke="#111" stroke-width="2"/><path d="M33 32 H31" stroke="#111" stroke-width="2"/></g><g id="sigil-mouth"><path d="M26 44 Q32 41 38 44" fill="none" stroke="#111" stroke-width="2.5" stroke-linecap="round"/></g><g id="sigil-hat"><path d="M20 26 Q24 14 32 18 Q40 14 44 26" fill="none" stroke="#fb7185" stroke-width="4" opacity="0.55" stroke-linecap="round"/></g><g id="sigil-fx"><circle cx="16" cy="20" r="2" fill="#111" opacity="0.14"/><circle cx="20" cy="18" r="1.5" fill="#111" opacity="0.12"/><circle cx="48" cy="44" r="2" fill="#111" opacity="0.14"/></g></g></g><g id="sigil-frame" filter="url(#sigil_frame_shadow)"><rect x="1.5" y="1.5" width="61" height="61" rx="12" fill="none" stroke="#fff" stroke-width="3" opacity="0.10"/><rect x="3" y="3" width="58" height="58" rx="11" fill="none" stroke="#000" stroke-width="2" opacity="0.10"/></g></svg>