<svg xmlns="http://www.w3.org/2000/svg" width="256" height="256" viewBox="0 0 64 64"><desc>sigil example 4</desc><metadata><sigil:data xmlns:sigil="https://bobine.tech#sigil"><sigil:seed>66bb695742d1b33bed11afdc4ac6d88c</sigil:seed><sigil:burns>0</sigil:burns><sigil:bless_count>0</sigil:bless_count><sigil:traits env="6" face="3" eyes="1" mouth="7" top="2" acc="1" pal="3"/></sigil:data></metadata><rect x="0" y="0" width="64" height="64" fill="#111827"/><path d="M0 52 Q32 36 64 52 V64 H0 Z" fill="#f59e0b" opacity="0.35"/><circle cx="32" cy="34" r="18" fill="#c98a5e"/><circle cx="24" cy="40" r="3" fill="#000" opacity="0.06"/><circle cx="40" cy="40" r="3" fill="#000" opacity="0.06"/><path d="M20 32 Q25 28 30 32" fill="none" stroke="#111" stroke-width="2.5"/><path d="M34 32 Q39 28 44 32" fill="none" stroke="#111" stroke-width="2.5"/><path d="M27 43 Q32 45 37 43" fill="none" stroke="#111" stroke-width="2.5"/><path d="M29 47 Q32 49 35 47" fill="none" stroke="#111" opacity="0.25" stroke-width="2"/><path d="M16 28 Q32 8 48 28 Q44 14 32 14 Q20 14 16 28Z" fill="#3b2f2f"/><circle cx="32" cy="14" r="3" fill="#000" opacity="0.08"/><circle cx="25" cy="32" r="7" fill="none" stroke="#111" stroke-width="2"/><circle cx="39" cy="32" r="7" fill="none" stroke="#111" stroke-width="2"/><path d="M32 32 H32" stroke="#111" stroke-width="2"/></svg>