<svg xmlns="http://www.w3.org/2000/svg" width="256" height="256" viewBox="0 0 64 64"><defs><linearGradient id="sigil_bg_grad" x1="0" y1="0" x2="1" y2="1"><stop offset="0%" stop-color="#2a0b2e"/><stop offset="100%" stop-color="#f59e0b"/></linearGradient><filter id="sigil_soft_shadow" x="-20%" y="-20%" width="140%" height="140%"><feDropShadow dx="0" dy="1.2" stdDeviation="1.1" flood-color="#000" flood-opacity="0.28"/></filter><radialGradient id="sigil_vignette" cx="50%" cy="45%" r="70%"><stop offset="0%" stop-color="#000" stop-opacity="0"/><stop offset="75%" stop-color="#000" stop-opacity="0"/><stop offset="100%" stop-color="#000" stop-opacity="0.22"/></radialGradient><clipPath id="sigil_clip"><rect x="0" y="0" width="64" height="64" rx="12"/></clipPath><filter id="sigil_frame_shadow" x="-20%" y="-20%" width="140%" height="140%"><feDropShadow dx="0" dy="1" stdDeviation="1.2" flood-color="#000" flood-opacity="0.22"/></filter><filter id="sigil_laser_glow" x="-40%" y="-40%" width="180%" height="180%"><feGaussianBlur stdDeviation="0.7"/></filter><filter id="sigil_tint_r"><feColorMatrix type="matrix" values="1 0 0 0 0  0 0 0 0 0  0 0 0 0 0  0 0 0 1 0"/></filter><filter id="sigil_tint_c"><feColorMatrix type="matrix" values="0 0 0 0 0  0 1 0 0 0  0 0 1 0 0  0 0 0 1 0"/></filter></defs><desc>sigil example 1</desc><metadata><sigil:data xmlns:sigil="https://bobine.tech#sigil"><sigil:seed>3d4804fc829c0d14a216dddf6f422864</sigil:seed><sigil:burns>0</sigil:burns><sigil:bless_count>0</sigil:bless_count><sigil:traits bg="1" arche="0" body="0" brow="2" eyes="0" mouth="0" hat="0" fx="0" pal="5" anomaly="0" anomaly_kind="1"/></sigil:data></metadata><g id="sigil-scene" clip-path="url(#sigil_clip)"><g id="sigil-bg"><rect x="0" y="0" width="64" height="64" rx="12" fill="url(#sigil_bg_grad)"/><path d="M0 14 H64 M0 30 H64 M0 46 H64" stroke="#fff" stroke-width="2" opacity="0.07"/><rect x="0" y="0" width="64" height="64" rx="12" fill="url(#sigil_vignette)"/></g><g id="sigil-avatar" filter="url(#sigil_soft_shadow)"><g id="sigil-body"><path d="M10 64 V46 Q32 30 54 46 V64 Z" fill="#2a0b2e"/><path d="M18 46 Q32 36 46 46" fill="none" stroke="#fff" opacity="0.10" stroke-width="3" stroke-linecap="round"/><path d="M26 46 V64" stroke="#000" opacity="0.10" stroke-width="3"/><path d="M38 46 V64" stroke="#000" opacity="0.10" stroke-width="3"/></g><g id="sigil-head"><circle cx="32" cy="34" r="18" fill="#b9794f"/><path d="M20 26 Q32 18 44 26" fill="none" stroke="#fff" opacity="0.08" stroke-width="4" stroke-linecap="round"/><path d="M20 50 Q32 56 44 50" fill="none" stroke="#000" opacity="0.07" stroke-width="6" stroke-linecap="round"/><circle cx="22" cy="42" r="5" fill="#fff" opacity="0.030"/><circle cx="42" cy="42" r="5" fill="#fff" opacity="0.022"/></g><g id="sigil-brows"><path d="M20 27 Q25 22 30 27" fill="none" stroke="#111" stroke-width="2.5" stroke-linecap="round" opacity="0.40"/><path d="M34 27 Q39 22 44 27" fill="none" stroke="#111" stroke-width="2.5" stroke-linecap="round" opacity="0.40"/></g><g id="sigil-eyes"><circle cx="25" cy="32" r="3" fill="#111"/><circle cx="39" cy="32" r="3" fill="#111"/></g><g id="sigil-mouth"><path d="M26 43 Q32 47 38 43" fill="none" stroke="#111" stroke-width="2.5" stroke-linecap="round"/></g><g id="sigil-hat"></g><g id="sigil-fx"></g></g></g><g id="sigil-frame" filter="url(#sigil_frame_shadow)"><rect x="1.5" y="1.5" width="61" height="61" rx="12" fill="none" stroke="#fff" stroke-width="3" opacity="0.10"/><rect x="3" y="3" width="58" height="58" rx="11" fill="none" stroke="#000" stroke-width="2" opacity="0.10"/></g></svg>