<svg xmlns="http://www.w3.org/2000/svg" width="256" height="256" viewBox="0 0 64 64"><defs><linearGradient id="sigil_bg_grad" x1="0" y1="0" x2="1" y2="1"><stop offset="0%" stop-color="#0f172a"/><stop offset="100%" stop-color="#2563eb"/></linearGradient><filter id="sigil_soft_shadow" x="-20%" y="-20%" width="140%" height="140%"><feDropShadow dx="0" dy="1.2" stdDeviation="1.1" flood-color="#000" flood-opacity="0.28"/></filter><radialGradient id="sigil_vignette" cx="50%" cy="45%" r="70%"><stop offset="0%" stop-color="#000" stop-opacity="0"/><stop offset="75%" stop-color="#000" stop-opacity="0"/><stop offset="100%" stop-color="#000" stop-opacity="0.22"/></radialGradient><clipPath id="sigil_clip"><rect x="0" y="0" width="64" height="64" rx="12"/></clipPath><filter id="sigil_frame_shadow" x="-20%" y="-20%" width="140%" height="140%"><feDropShadow dx="0" dy="1" stdDeviation="1.2" flood-color="#000" flood-opacity="0.22"/></filter><filter id="sigil_laser_glow" x="-40%" y="-40%" width="180%" height="180%"><feGaussianBlur stdDeviation="0.7"/></filter><filter id="sigil_tint_r"><feColorMatrix type="matrix" values="1 0 0 0 0  0 0 0 0 0  0 0 0 0 0  0 0 0 1 0"/></filter><filter id="sigil_tint_c"><feColorMatrix type="matrix" values="0 0 0 0 0  0 1 0 0 0  0 0 1 0 0  0 0 0 1 0"/></filter></defs><desc>sigil example 3</desc><metadata><sigil:data xmlns:sigil="https://bobine.tech#sigil"><sigil:seed>21c6daa4ae09a86051edd10a753ab024</sigil:seed><sigil:burns>0</sigil:burns><sigil:bless_count>0</sigil:bless_count><sigil:traits bg="3" arche="0" body="2" brow="0" eyes="2" mouth="4" hat="3" fx="0" pal="0" anomaly="0" anomaly_kind="2"/></sigil:data></metadata><g id="sigil-scene" clip-path="url(#sigil_clip)"><g id="sigil-bg"><rect x="0" y="0" width="64" height="64" rx="12" fill="url(#sigil_bg_grad)"/><circle cx="50" cy="18" r="10" fill="#fff" opacity="0.06"/><rect x="0" y="0" width="64" height="64" rx="12" fill="url(#sigil_vignette)"/></g><g id="sigil-avatar" filter="url(#sigil_soft_shadow)"><g id="sigil-body"><path d="M12 64 V48 Q32 40 52 48 V64 Z" fill="#1f2937"/><path d="M22 48 Q32 44 42 48" fill="none" stroke="#000" opacity="0.10" stroke-width="3" stroke-linecap="round"/></g><g id="sigil-head"><circle cx="32" cy="34" r="18" fill="#f2c9a0"/><path d="M20 26 Q32 18 44 26" fill="none" stroke="#fff" opacity="0.08" stroke-width="4" stroke-linecap="round"/><path d="M20 50 Q32 56 44 50" fill="none" stroke="#000" opacity="0.07" stroke-width="6" stroke-linecap="round"/><circle cx="22" cy="42" r="5" fill="#fff" opacity="0.030"/><circle cx="42" cy="42" r="5" fill="#fff" opacity="0.022"/></g><g id="sigil-brows"></g><g id="sigil-eyes"><circle cx="25" cy="32" r="3" fill="#111"/><circle cx="39" cy="32" r="3" fill="#111"/><path d="M24 35 Q23 40 25 44" fill="none" stroke="#60a5fa" stroke-width="2.5" stroke-linecap="round" opacity="0.8"/></g><g id="sigil-mouth"><path d="M26 44 Q32 48 38 44" fill="none" stroke="#111" stroke-width="2.5" stroke-linecap="round"/><path d="M40 44 Q45 46 46 42" fill="none" stroke="#111" opacity="0.65" stroke-width="3" stroke-linecap="round"/></g><g id="sigil-hat"><path d="M18 22 L24 14 L32 22 L40 14 L46 22" fill="none" stroke="#f59e0b" stroke-width="4" stroke-linecap="round" stroke-linejoin="round"/><circle cx="24" cy="14" r="2" fill="#fef08a" opacity="0.9"/><circle cx="40" cy="14" r="2" fill="#fef08a" opacity="0.9"/></g><g id="sigil-fx"></g></g></g><g id="sigil-frame" filter="url(#sigil_frame_shadow)"><rect x="1.5" y="1.5" width="61" height="61" rx="12" fill="none" stroke="#fff" stroke-width="3" opacity="0.10"/><rect x="3" y="3" width="58" height="58" rx="11" fill="none" stroke="#000" stroke-width="2" opacity="0.10"/></g></svg>