<svg xmlns="http://www.w3.org/2000/svg" width="256" height="256" viewBox="0 0 64 64"><defs><linearGradient id="sigil_bg_grad" x1="0" y1="0" x2="1" y2="1"><stop offset="0%" stop-color="#1f0a3a"/><stop offset="100%" stop-color="#ec4899"/></linearGradient><filter id="sigil_soft_shadow" x="-20%" y="-20%" width="140%" height="140%"><feDropShadow dx="0" dy="1.2" stdDeviation="1.1" flood-color="#000" flood-opacity="0.28"/></filter><radialGradient id="sigil_vignette" cx="50%" cy="45%" r="70%"><stop offset="0%" stop-color="#000" stop-opacity="0"/><stop offset="75%" stop-color="#000" stop-opacity="0"/><stop offset="100%" stop-color="#000" stop-opacity="0.22"/></radialGradient><clipPath id="sigil_clip"><rect x="0" y="0" width="64" height="64" rx="12"/></clipPath><filter id="sigil_frame_shadow" x="-20%" y="-20%" width="140%" height="140%"><feDropShadow dx="0" dy="1" stdDeviation="1.2" flood-color="#000" flood-opacity="0.22"/></filter><filter id="sigil_laser_glow" x="-40%" y="-40%" width="180%" height="180%"><feGaussianBlur stdDeviation="0.7"/></filter><filter id="sigil_tint_r"><feColorMatrix type="matrix" values="1 0 0 0 0  0 0 0 0 0  0 0 0 0 0  0 0 0 1 0"/></filter><filter id="sigil_tint_c"><feColorMatrix type="matrix" values="0 0 0 0 0  0 1 0 0 0  0 0 1 0 0  0 0 0 1 0"/></filter></defs><desc>sigil example 2</desc><metadata><sigil:data xmlns:sigil="https://bobine.tech#sigil"><sigil:seed>357c3b0646ac3bad24a4151268794da4</sigil:seed><sigil:burns>0</sigil:burns><sigil:bless_count>0</sigil:bless_count><sigil:traits bg="3" arche="4" body="3" brow="1" eyes="0" mouth="0" hat="4" fx="1" pal="3" anomaly="0" anomaly_kind="2"/></sigil:data></metadata><g id="sigil-scene" clip-path="url(#sigil_clip)"><g id="sigil-bg"><rect x="0" y="0" width="64" height="64" rx="12" fill="url(#sigil_bg_grad)"/><circle cx="50" cy="18" r="10" fill="#fff" opacity="0.06"/><rect x="0" y="0" width="64" height="64" rx="12" fill="url(#sigil_vignette)"/></g><g id="sigil-avatar" filter="url(#sigil_soft_shadow)"><g id="sigil-body"></g><g id="sigil-head"><path d="M18 56 V32 C18 22 25 16 32 16 C39 16 46 22 46 32 V56" fill="#f0d5b8"/><path d="M18 56 Q22 52 26 56 Q30 52 34 56 Q38 52 42 56 Q44 54 46 56" fill="$S"/><path d="M20 26 Q32 18 44 26" fill="none" stroke="#fff" opacity="0.08" stroke-width="4" stroke-linecap="round"/><path d="M20 50 Q32 56 44 50" fill="none" stroke="#000" opacity="0.07" stroke-width="6" stroke-linecap="round"/><circle cx="22" cy="42" r="5" fill="#fff" opacity="0.030"/><circle cx="42" cy="42" r="5" fill="#fff" opacity="0.022"/></g><g id="sigil-brows"><path d="M20 27 Q25 24 30 27" fill="none" stroke="#111" stroke-width="2" stroke-linecap="round" opacity="0.35"/><path d="M34 27 Q39 24 44 27" fill="none" stroke="#111" stroke-width="2" stroke-linecap="round" opacity="0.35"/></g><g id="sigil-eyes"><circle cx="25" cy="32" r="3" fill="#111"/><circle cx="39" cy="32" r="3" fill="#111"/></g><g id="sigil-mouth"><path d="M26 43 Q32 47 38 43" fill="none" stroke="#111" stroke-width="2.5" stroke-linecap="round"/></g><g id="sigil-hat"><rect x="22" y="10" width="20" height="14" rx="2" fill="#0f172a"/><path d="M18 24 H46" stroke="$H" stroke-width="6" stroke-linecap="round"/></g><g id="sigil-fx"><path d="M12 18 L14 22 L18 24 L14 26 L12 30 L10 26 L6 24 L10 22 Z" fill="#fff" opacity="0.12"/><path d="M52 40 L54 44 L58 46 L54 48 L52 52 L50 48 L46 46 L50 44 Z" fill="#fff" opacity="0.10"/></g></g></g><g id="sigil-frame" filter="url(#sigil_frame_shadow)"><rect x="1.5" y="1.5" width="61" height="61" rx="12" fill="none" stroke="#fff" stroke-width="3" opacity="0.10"/><rect x="3" y="3" width="58" height="58" rx="11" fill="none" stroke="#000" stroke-width="2" opacity="0.10"/></g></svg>